<mxfile host="app.diagrams.net" agent="Mozilla/5.0 (Windows NT 10.0; Win64; x64) AppleWebKit/537.36 (KHTML, like Gecko) Chrome/129.0.0.0 Safari/537.36" version="24.7.17">
  <diagram name="Page-1" id="SfVXjJMxJvIR2DUhF9N2">
    <mxGraphModel dx="600" dy="353" grid="1" gridSize="10" guides="1" tooltips="1" connect="1" arrows="1" fold="1" page="1" pageScale="1" pageWidth="1100" pageHeight="850" math="0" shadow="0">
      <root>
        <mxCell id="0" />
        <mxCell id="1" parent="0" />
        <mxCell id="MirSpIWI6XTZy0-F90U4-5" value="" style="group" vertex="1" connectable="0" parent="1">
          <mxGeometry x="100" y="280" width="145" height="87" as="geometry" />
        </mxCell>
        <mxCell id="MirSpIWI6XTZy0-F90U4-4" value="&lt;h2&gt;&lt;font style=&quot;font-size: 18px;&quot;&gt;PAYME&lt;/font&gt;&lt;/h2&gt;" style="rounded=1;whiteSpace=wrap;html=1;fillColor=#0050ef;fontColor=#ffffff;strokeColor=#001DBC;" vertex="1" parent="MirSpIWI6XTZy0-F90U4-5">
          <mxGeometry x="27.5" y="20" width="90" height="30" as="geometry" />
        </mxCell>
        <mxCell id="MirSpIWI6XTZy0-F90U4-6" value="" style="rounded=1;whiteSpace=wrap;html=1;fillColor=#ef4734;strokeColor=#D71515;dashed=1;dashPattern=8 8;fillStyle=solid;gradientColor=none;opacity=80;" vertex="1" parent="1">
          <mxGeometry x="280" y="210" width="350" height="180" as="geometry" />
        </mxCell>
        <mxCell id="MirSpIWI6XTZy0-F90U4-3" value="" style="verticalLabelPosition=bottom;html=1;verticalAlign=top;align=center;strokeColor=none;fillColor=#00BEF2;shape=mxgraph.azure.laptop;pointerEvents=1;" vertex="1" parent="1">
          <mxGeometry x="104" y="276" width="145" height="87" as="geometry" />
        </mxCell>
      </root>
    </mxGraphModel>
  </diagram>
</mxfile>
